<?xml version="1.0" encoding="UTF-8" standalone="no"?>
<!DOCTYPE svg PUBLIC "-//W3C//DTD SVG 1.1//EN"
 "http://www.w3.org/Graphics/SVG/1.1/DTD/svg11.dtd">
<!-- Generated by graphviz version 2.38.0 (20140413.2041)
 -->
<!-- Title: computational_graph Pages: 1 -->
<svg width="522pt" height="165pt"
 viewBox="0.00 0.00 522.09 164.70" xmlns="http://www.w3.org/2000/svg" xmlns:xlink="http://www.w3.org/1999/xlink">
<g id="graph0" class="graph" transform="scale(1 1) rotate(0) translate(4 160.698)">
<title>computational_graph</title>
<polygon fill="white" stroke="none" points="-4,4 -4,-160.698 518.088,-160.698 518.088,4 -4,4"/>
<!-- a -->
<g id="node1" class="node"><title>a</title>
<ellipse fill="none" stroke="black" cx="94" cy="-138.698" rx="18" ry="18"/>
<text text-anchor="middle" x="94" y="-134.998" font-family="Times New Roman,serif" font-size="14.00">a</text>
</g>
<!-- + -->
<g id="node4" class="node"><title>+</title>
<ellipse fill="none" stroke="black" cx="170" cy="-117.698" rx="18" ry="18"/>
<text text-anchor="middle" x="170" y="-113.998" font-family="Times New Roman,serif" font-size="14.00">+</text>
</g>
<!-- a&#45;&gt;+ -->
<g id="edge1" class="edge"><title>a&#45;&gt;+</title>
<path fill="none" stroke="black" d="M111.423,-134.037C120.556,-131.445 132.143,-128.157 142.523,-125.211"/>
<polygon fill="black" stroke="black" points="143.702,-128.515 152.367,-122.418 141.791,-121.781 143.702,-128.515"/>
</g>
<!-- b -->
<g id="node2" class="node"><title>b</title>
<ellipse fill="none" stroke="black" cx="18" cy="-84.6978" rx="18" ry="18"/>
<text text-anchor="middle" x="18" y="-80.9978" font-family="Times New Roman,serif" font-size="14.00">b</text>
</g>
<!-- ln -->
<g id="node5" class="node"><title>ln</title>
<ellipse fill="none" stroke="black" cx="94" cy="-84.6978" rx="18" ry="18"/>
<text text-anchor="middle" x="94" y="-80.9978" font-family="Times New Roman,serif" font-size="14.00">ln</text>
</g>
<!-- b&#45;&gt;ln -->
<g id="edge2" class="edge"><title>b&#45;&gt;ln</title>
<path fill="none" stroke="black" d="M36.1631,-84.6978C44.9425,-84.6978 55.8374,-84.6978 65.7325,-84.6978"/>
<polygon fill="black" stroke="black" points="65.93,-88.1979 75.93,-84.6978 65.93,-81.1979 65.93,-88.1979"/>
<text text-anchor="middle" x="56" y="-88.4978" font-family="Times New Roman,serif" font-size="14.00"> </text>
</g>
<!-- c -->
<g id="node3" class="node"><title>c</title>
<ellipse fill="none" stroke="black" cx="170" cy="-63.6978" rx="18" ry="18"/>
<text text-anchor="middle" x="170" y="-59.9978" font-family="Times New Roman,serif" font-size="14.00">c</text>
</g>
<!-- *  -->
<g id="node6" class="node"><title>* </title>
<ellipse fill="none" stroke="black" cx="252.698" cy="-85.6978" rx="18" ry="18"/>
<text text-anchor="middle" x="252.698" y="-81.9978" font-family="Times New Roman,serif" font-size="14.00">* </text>
</g>
<!-- c&#45;&gt;*  -->
<g id="edge5" class="edge"><title>c&#45;&gt;* </title>
<path fill="none" stroke="black" d="M187.721,-68.2562C198.541,-71.206 212.861,-75.11 225.21,-78.4765"/>
<polygon fill="black" stroke="black" points="224.43,-81.8917 234.999,-81.1452 226.271,-75.1382 224.43,-81.8917"/>
</g>
<!-- +&#45;&gt;*  -->
<g id="edge4" class="edge"><title>+&#45;&gt;* </title>
<path fill="none" stroke="black" d="M186.943,-111.376C198.217,-106.905 213.562,-100.82 226.485,-95.6956"/>
<polygon fill="black" stroke="black" points="227.782,-98.9466 235.788,-92.0068 225.202,-92.4395 227.782,-98.9466"/>
<text text-anchor="middle" x="208" y="-106.498" font-family="Times New Roman,serif" font-size="14.00"> </text>
</g>
<!-- ln&#45;&gt;+ -->
<g id="edge3" class="edge"><title>ln&#45;&gt;+</title>
<path fill="none" stroke="black" d="M110.693,-91.6963C120.406,-96.0277 133.091,-101.684 144.147,-106.615"/>
<polygon fill="black" stroke="black" points="142.771,-109.833 153.329,-110.709 145.622,-103.44 142.771,-109.833"/>
<text text-anchor="middle" x="132" y="-104.498" font-family="Times New Roman,serif" font-size="14.00"> </text>
</g>
<!-- * -->
<g id="node7" class="node"><title>*</title>
<ellipse fill="none" stroke="black" cx="332.396" cy="-45.6978" rx="18" ry="18"/>
<text text-anchor="middle" x="332.396" y="-41.9978" font-family="Times New Roman,serif" font-size="14.00">*</text>
</g>
<!-- * &#45;&gt;* -->
<g id="edge6" class="edge"><title>* &#45;&gt;*</title>
<path fill="none" stroke="black" d="M269.048,-77.7951C279.903,-72.207 294.678,-64.6006 307.12,-58.1951"/>
<polygon fill="black" stroke="black" points="308.788,-61.2732 316.077,-53.5841 305.584,-55.0495 308.788,-61.2732"/>
</g>
<!-- 1/x -->
<g id="node9" class="node"><title>1/x</title>
<ellipse fill="none" stroke="black" cx="409.494" cy="-45.6978" rx="22.1965" ry="22.1965"/>
<text text-anchor="middle" x="409.494" y="-41.9978" font-family="Times New Roman,serif" font-size="14.00">1/x</text>
</g>
<!-- *&#45;&gt;1/x -->
<g id="edge8" class="edge"><title>*&#45;&gt;1/x</title>
<path fill="none" stroke="black" d="M350.437,-45.6978C358.36,-45.6978 368.041,-45.6978 377.209,-45.6978"/>
<polygon fill="black" stroke="black" points="377.221,-49.1979 387.221,-45.6978 377.221,-42.1979 377.221,-49.1979"/>
</g>
<!-- 1/3  -->
<g id="node8" class="node"><title>1/3 </title>
<ellipse fill="none" stroke="black" cx="252.698" cy="-24.6978" rx="24.8972" ry="24.8972"/>
<text text-anchor="middle" x="252.698" y="-20.9978" font-family="Times New Roman,serif" font-size="14.00">1/3 </text>
</g>
<!-- 1/3 &#45;&gt;* -->
<g id="edge7" class="edge"><title>1/3 &#45;&gt;*</title>
<path fill="none" stroke="black" d="M277.01,-30.9985C285.844,-33.3861 295.961,-36.1205 305.054,-38.5783"/>
<polygon fill="black" stroke="black" points="304.196,-41.972 314.763,-41.2024 306.023,-35.2144 304.196,-41.972"/>
</g>
<!-- out -->
<g id="node10" class="node"><title>out</title>
<ellipse fill="none" stroke="black" cx="491.34" cy="-45.6978" rx="22.9987" ry="22.9987"/>
<text text-anchor="middle" x="491.34" y="-41.9978" font-family="Times New Roman,serif" font-size="14.00">out</text>
</g>
<!-- 1/x&#45;&gt;out -->
<g id="edge9" class="edge"><title>1/x&#45;&gt;out</title>
<path fill="none" stroke="black" d="M431.891,-45.6978C439.992,-45.6978 449.401,-45.6978 458.272,-45.6978"/>
<polygon fill="black" stroke="black" points="458.327,-49.1979 468.327,-45.6978 458.327,-42.1979 458.327,-49.1979"/>
</g>
</g>
</svg>